#!OML:ASF E:\acrobat2\Project_11_07_03\Capture day 1\Session 1\Acrobat.ASF
:FULLY-SPECIFIED
:DEGREES
813
root 17.3671 11.6797 -8.91984 -339.71 -12.3518 4.43151
lowerback 43.1366 2.37859 -1.6867
upperback 14.7092 1.80931 -1.3904
thorax -3.86255 0.807931 -1.29504
lowerneck 5.20489 -1.10586 2.32064
upperneck -27.7039 -3.12266 -6.74104
head -9.72209 -1.01118 -2.45393
rclavicle -1.11319e-014 1.59028e-014
rhumerus 50.8494 13.949 -46.4768
rradius 35.4752
rwrist -6.15946
rhand -11.5121 -39.8918
rfingers 7.12502
rthumb 14.5271 -789.363
lclavicle -1.11319e-014 1.59028e-014
lhumerus 62.717 -11.8552 45.887
lradius 26.4245
lwrist 2.87035
lhand 23.8236 -1.38002
lfingers 7.12502
lthumb 48.079 20.7959
rfemur -106.109 -33.4059 30.3993
rtibia 52.4009
rfoot -195.906 3.26772
rtoes -4.53881
lfemur -110.994 39.9628 -34.967
ltibia 56.831
lfoot -539.082 7.96007
ltoes 18.3406
814
root 17.3551 11.6312 -8.90007 -340.286 -12.1065 4.60899
lowerback 43.6587 2.38359 -1.7401
upperback 14.8473 1.77604 -1.46349
thorax -3.8459 0.796845 -1.34022
lowerneck 5.20872 -1.17778 2.2576
upperneck -27.7584 -3.21861 -6.6556
head -9.74604 -1.05784 -2.40425
rclavicle 0 2.34566e-014
rhumerus 49.9622 13.4204 -48.6123
rradius 35.7786
rwrist -5.879
rhand -12.6786 -40.248
rfingers 7.12502
rthumb 13.403 -789.797
lclavicle 0 2.34566e-014
lhumerus 62.8385 -11.7375 46.9529
lradius 27.2008
lwrist 2.6992
lhand 22.0529 -2.00659
lfingers 7.12502
lthumb 46.4425 20.9014
rfemur -105.812 -33.874 30.6377
rtibia 52.2564
rfoot -195.335 2.62664
rtoes -6.0464
lfemur -111.481 39.7346 -35.1808
ltibia 57.9319
lfoot -538.657 9.50492
ltoes 20.3447
815
root 17.3429 11.5716 -8.88181 -340.824 -11.8179 4.80277
lowerback 44.2056 2.38052 -1.73338
upperback 14.9421 1.75455 -1.56045
thorax -3.87938 0.795917 -1.44692
lowerneck 5.18269 -1.26449 2.26385
upperneck -27.8107 -3.31319 -6.52824
head -9.76336 -1.11635 -2.35191
rclavicle 8.74653e-015 1.33186e-014
rhumerus 48.9507 12.8358 -50.6384
rradius 36.1452
rwrist -5.59396
rhand -13.9903 -40.6249
rfingers 7.12502
rthumb 12.1385 -790.253
lclavicle 8.74653e-015 1.33186e-014
lhumerus 62.9757 -11.8057 47.8808
lradius 28.043
lwrist 2.55936
lhand 19.8626 -2.80157
lfingers 7.12502
lthumb 44.407 20.9278
rfemur -105.58 -34.4137 30.9211
rtibia 52.1573
rfoot -194.614 2.28704
rtoes -7.43811
lfemur -112.091 39.4594 -35.5774
ltibia 59.0976
lfoot -537.88 10.9671
ltoes 22.4754
816
root 17.3297 11.5017 -8.86441 -341.355 -11.5133 5.00821
lowerback 44.7989 2.38884 -1.70694
upperback 15.0023 1.75228 -1.66521
thorax -3.95935 0.805962 -1.5808
lowerneck 5.16924 -1.34992 2.29938
upperneck -27.9034 -3.39238 -6.36321
head -9.79658 -1.17377 -2.2935
rclavicle 1.90833e-014 2.0276e-014
rhumerus 47.8421 12.2067 -52.5854
rradius 36.5496
rwrist -5.2038
rhand -15.4085 -41.0398
rfingers 7.12502
rthumb 10.7707 -790.744
lclavicle 1.90833e-014 2.0276e-014
lhumerus 63.1423 -12.0372 48.6722
lradius 28.9061
lwrist 2.46365
lhand 17.2593 -3.7256
lfingers 7.12502
lthumb 41.9739 20.8732
rfemur -105.362 -34.9952 31.2196
rtibia 52.0567
rfoot -193.991 2.26169
rtoes -8.68923
lfemur -112.758 39.1823 -36.1269
ltibia 60.3215
lfoot -536.798 12.2879
ltoes 24.3998
817
root 17.3152 11.4217 -8.84773 -341.88 -11.208 5.21293
lowerback 45.4418 2.42142 -1.67922
upperback 15.0263 1.77757 -1.7637
thorax -4.08796 0.829063 -1.72115
lowerneck 5.16504 -1.42968 2.37028
upperneck -28.0369 -3.45953 -6.2002
head -9.84629 -1.22813 -2.24377
rclavicle -1.11319e-014 -1.23246e-014
rhumerus 46.6812 11.5387 -54.4039
rradius 36.9632
rwrist -4.71654
rhand -16.8469 -41.5538
rfingers 7.12502
rthumb 9.38311 -791.325
lclavicle -1.11319e-014 -1.23246e-014
lhumerus 63.3504 -12.415 49.3492
lradius 29.7676
lwrist 2.41161
lhand 14.3206 -4.70795
lfingers 7.12502
lthumb 39.2118 20.7511
rfemur -105.149 -35.5798 31.5335
rtibia 51.9015
rfoot -193.693 2.52492
rtoes -9.93102
lfemur -113.459 38.9225 -36.8043
ltibia 61.5924
lfoot -535.464 13.4238
ltoes 26.0636
818
root 17.3007 11.3286 -8.8317 -342.306 -10.8834 5.40855
lowerback 45.985 2.45131 -1.62533
upperback 15.029 1.81518 -1.85604
thorax -4.21207 0.858959 -1.87192
lowerneck 5.19989 -1.49442 2.52932
upperneck -28.2687 -3.52174 -6.134
head -9.94239 -1.27659 -2.24572
rclavicle 7.95139e-015 9.54166e-015
rhumerus 45.4855 10.8231 -56.1626
rradius 37.3498
rwrist -4.03656
rhand -18.2643 -42.2069
rfingers 7.12502
rthumb 8.01523 -792.035
lclavicle 7.95139e-015 9.54166e-015
lhumerus 63.5865 -12.9099 49.9252
lradius 30.641
lwrist 2.38473
lhand 11.1178 -5.71829
lfingers 7.12502
lthumb 36.1857 20.5524
rfemur -105.043 -36.1577 31.8795
rtibia 51.5517
rfoot -193.95 2.81392
rtoes -10.1842
lfemur -114.298 38.6072 -37.6324
ltibia 62.8608
lfoot -533.969 14.3455
ltoes 27.4759
819
root 17.2878 11.2199 -8.81599 -342.556 -10.5281 5.59763
lowerback 46.2899 2.45142 -1.5366
upperback 15.0298 1.8433 -1.94177
thorax -4.27957 0.885698 -2.0253
lowerneck 5.23247 -1.54051 2.73556
upperneck -28.5528 -3.57261 -6.14571
head -10.0594 -1.3155 -2.28584
rclavicle 1.35174e-014 -1.09332e-014
rhumerus 44.316 10.0794 -57.8637
rradius 37.6693
rwrist -3.13885
rhand -19.6409 -43.025
rfingers 7.12502
rthumb 6.68647 -792.899
lclavicle 1.35174e-014 -1.09332e-014
lhumerus 63.8099 -13.4785 50.4297
lradius 31.5321
lwrist 2.35523
lhand 7.76282 -6.7655
lfingers 7.12502
lthumb 33.0015 20.2344
rfemur -105.196 -36.7083 32.3366
rtibia 50.9355
rfoot -194.8 3.07265
rtoes -10.1883
lfemur -115.358 38.1635 -38.6293
ltibia 64.0784
lfoot -532.417 15.0184
ltoes 28.6885
